<svg fill="#fff" xmlns="http://www.w3.org/2000/svg" viewBox="0 0 1000 1000"><path d="M642.96 155.87L499.42 301.44 353.55 157.32 207.4 13.2l-98.7 99.28L10 212.05l146.15 143.83L302.02 500 157.9 645.86 13.78 792.02l99.28 98.7 99.57 98.7 143.83-146.15L500.58 697.4l145.86 144.12L792.6 985.64l98.7-99.28 98.7-99.57-146.16-144.13-145.86-143.82 143.83-145.86 144.12-146.16-66.09-66.38c-36.39-36.68-81.23-80.65-99.86-98.12L786.2 10.58 642.96 155.87zm223.3-25.34l76.57 76.57-144.11 145.87-144.41 145.87 146.16 144.41 146.45 144.12-77.44 77.45-77.15 77.44-145.88-144.12-145.87-144.41-144.41 146.15-144.11 146.45-77.45-77.45-77.45-77.15 144.12-145.87L345.69 500 199.54 355.59 53.09 211.47l77.45-77.45 77.15-77.45L353.55 200.7l145.86 144.41 143.54-145.57c78.61-80.07 144.12-145.57 144.99-145.57.88-.01 36.4 34.35 78.32 76.56z"/></svg>