<svg aria-hidden="true" style="position: absolute; width: 0; height: 0; overflow: hidden;" version="1.1" xmlns="http://www.w3.org/2000/svg" xmlns:xlink="http://www.w3.org/1999/xlink">
<defs>
<symbol id="icon-cross_114275" viewBox="0 0 32 32">
<title>cross_114275</title>
<path d="M21.657 16l9.171-9.163c0.757-0.754 1.174-1.758 1.174-2.825s-0.417-2.071-1.174-2.826c-0.753-0.754-1.76-1.17-2.827-1.17-1.068 0-2.073 0.416-2.829 1.17l-9.173 9.163-9.172-9.163c-0.755-0.755-1.76-1.171-2.83-1.171-1.067 0-2.072 0.416-2.827 1.171-1.559 1.558-1.56 4.093 0 5.651l9.173 9.163-9.172 9.163c-1.56 1.56-1.56 4.095 0 5.652 0.755 0.754 1.76 1.17 2.828 1.17s2.073-0.416 2.828-1.171l9.172-9.163 9.172 9.162c0.756 0.754 1.76 1.171 2.827 1.171 1.069 0 2.074-0.416 2.829-1.171 1.56-1.56 1.56-4.095 0-5.651l-9.17-9.162zM29.412 29.401c-0.755 0.754-2.072 0.755-2.829 0l-9.877-9.868c-0.392-0.393-1.024-0.393-1.415 0l-9.879 9.869c-0.756 0.754-2.073 0.754-2.829 0-0.779-0.779-0.779-2.047 0-2.826l9.879-9.869c0.188-0.188 0.293-0.44 0.293-0.706 0-0.265-0.105-0.519-0.293-0.706l-9.88-9.869c-0.779-0.779-0.779-2.047 0-2.826 0.379-0.378 0.881-0.585 1.415-0.585 0.535 0 1.037 0.208 1.416 0.585l9.879 9.869c0.391 0.391 1.023 0.391 1.415 0l9.879-9.868c0.756-0.755 2.072-0.755 2.829-0.001 0.377 0.378 0.585 0.88 0.585 1.414s-0.209 1.035-0.585 1.413l-9.879 9.869c-0.392 0.391-0.392 1.021 0 1.413l9.879 9.868c0.779 0.779 0.779 2.046-0.002 2.826z"></path>
</symbol>
</defs>
</svg>
